<svg width="159" height="22" viewBox="0 0 159 22" fill="none" xmlns="http://www.w3.org/2000/svg">
<path d="M22.7789 21.4667H37.9873V17.4627H27.3885V12.5503H36.1704V8.5463H27.3885V4.00397H38.0546V0H22.7789V21.4667ZM56.2912 13.526L46.3317 0H39.4678L41.6211 2.72539V21.534H46.1971V7.43595L56.4931 21.4667H60.9008V0H56.2912V13.526ZM15.8477 10.4305C17.8665 10.0604 19.5488 8.17618 19.5488 5.51808C19.5488 2.6581 17.4627 0 13.3242 0H0L2.0861 2.6581V21.5003H13.7952C17.9338 21.5003 20.0872 18.9095 20.0872 15.6794C19.9862 13.0213 18.1693 10.7333 15.8477 10.4305ZM6.66208 4.03762H12.4157C13.9634 4.03762 14.9392 4.94609 14.9392 6.29196C14.9392 7.63783 13.9634 8.5463 12.4157 8.5463H6.66208V4.03762ZM12.6176 17.4964H6.66208V12.5503H12.6176C14.3672 12.5503 15.343 13.6606 15.343 15.0065C15.343 16.5542 14.2999 17.4627 12.6176 17.4964ZM128.127 13.526H130.516V16.0495C129.271 17.059 127.723 17.6309 126.108 17.6646C122.273 17.6646 119.581 14.7373 119.581 10.8006C119.581 6.86396 122.306 3.93668 126.108 3.93668C128.094 3.93668 129.944 4.97973 131.021 6.66208L134.655 4.64326C133.107 2.18705 130.382 0 126.075 0C119.985 0 114.938 4.20586 114.938 10.7333C114.938 17.2608 119.917 21.4667 126.075 21.4667C129.439 21.534 132.636 20.0872 134.857 17.5973V9.65664H125.032L128.127 13.526ZM107.434 13.526L97.4413 0H90.611L92.7307 2.72539V21.534H97.3403V7.43595L107.636 21.4667H112.01V0H107.434V13.526ZM150.065 0H141.216L143.336 2.72539L142.965 3.76845L136.101 21.534H141.283L142.629 17.9001H151.882L153.228 21.534H158.409L150.065 0ZM143.807 13.8625L147.171 4.60962L150.536 13.8625H143.807ZM83.3432 0H87.9529V21.5676H83.3432V0ZM79.6757 3.70115V0H63.4916V4.00397H73.6529L63.4916 17.7992V21.4667H79.844V17.4627H69.4471L79.6757 3.70115Z" fill="black"/>
</svg>
