<svg width="97" height="22" viewBox="0 0 97 22" fill="none" xmlns="http://www.w3.org/2000/svg">
<path d="M0 6.44358C0 2.16082 2.66925 0 7.59681 0H21.9988V9.15417H20.8209C20.3248 3.83789 17.9511 1.65239 13.1284 1.65239H10.1556C7.84115 1.65239 6.71631 2.80623 6.71631 5.08428V16.9151C6.71631 19.1932 7.84053 20.347 10.1556 20.347H13.1303C17.882 20.347 20.2995 18.0319 20.8203 12.5472H21.9982V21.9994H7.59742C2.66986 21.9994 0.000617641 19.8386 0.000617641 15.5558V6.44358H0Z" fill="black"/>
<path d="M47.0292 0.000617641V22H41.1724L26.7803 4.48577V12.3713C26.7803 18.172 29.1071 20.3229 34.358 20.8949V22H25.0304V0.000617641H31.7671L45.2793 16.4486V9.5503C45.2793 3.78853 42.9426 1.61599 37.8213 1.10509V0H47.0292V0.000617641Z" fill="black"/>
<path d="M50.1196 0.000488281H72.119V9.15466H70.9411C70.4426 3.81863 68.0713 1.62881 63.2487 1.62881H56.6317V9.87843H58.8734C62.6156 9.87843 64.2069 8.19889 64.5858 4.59608H65.7834V16.6885H64.5858C64.2094 13.0684 62.623 11.4012 58.8734 11.4012H56.6317V20.3722H63.2511C68.0028 20.3722 70.4203 18.0503 70.9411 12.5477H72.119V21.9999H50.1196V0.000488281Z" fill="black"/>
<path d="M96.4425 0.000488281V9.15466H95.2646C94.7562 4.11912 92.6515 1.77999 88.6988 1.35486V16.8249C88.6988 19.5139 89.6472 20.5894 93.118 20.8139V21.9993H77.7676V20.8139C81.239 20.5887 82.1874 19.5139 82.1874 16.8249V1.35424C78.2347 1.77937 76.1301 4.11851 75.6216 9.15404H74.4431V0.000488281H96.4425Z" fill="black"/>
</svg>
