<svg width="174" height="39" viewBox="0 0 174 39" fill="none" xmlns="http://www.w3.org/2000/svg">
<g clip-path="url(#clip0_301_4616)">
<path d="M0.254713 28.0794L2.45161 27.7302V7.50794L0 7.19048L0.127356 5H15.4738L15.0917 11.127L12.0352 11.0317L11.8441 7.19048H7.10012V16.3016H9.16966L9.64725 14.2063L11.7805 14.2698V20.5556H9.64725L9.13782 18.3968H7.06828V28.0476H11.8441L12.2899 23.8571L15.5056 23.9524L15.7604 30.3333H0.159195L0.254713 28.0794Z" fill="black"/>
<path d="M17.1932 30.3652L17.2887 28.4922L19.0081 28.143V15.3811L17.0022 15.1906V13.2859L22.0328 12.5557L22.4148 13.6351V14.3652C23.6247 13.0954 25.0893 12.3335 26.9678 12.3335C29.706 12.3335 31.7437 13.9843 31.7437 17.2541V28.1113L33.5585 28.4605L33.463 30.3335H27.4773V18.2065C27.4773 16.4605 26.8405 15.4764 25.2485 15.4764C24.7073 15.4764 24.3252 15.5716 23.9113 15.7303C23.6566 15.9525 23.4019 16.27 23.179 16.5557V28.1748L24.9938 28.524L24.8665 30.397H17.1932V30.3652Z" fill="black"/>
<path d="M113.379 30.3652L113.443 28.4922L115.162 28.143V15.3811L113.156 15.1906V13.2859L118.187 12.5557L118.569 13.6351V14.3652C119.779 13.0954 121.243 12.3335 123.122 12.3335C125.86 12.3335 127.898 13.9843 127.898 17.2541V28.1113L129.713 28.4605L129.617 30.3335H123.663V18.2065C123.663 16.4605 123.026 15.4764 121.434 15.4764C120.893 15.4764 120.511 15.5716 120.097 15.7303C119.842 15.9525 119.588 16.27 119.365 16.5557V28.1748L121.18 28.524L121.052 30.397H113.379V30.3652V30.3652Z" fill="black"/>
<path d="M43.0465 30.0158C42.346 30.3015 41.1043 30.619 39.4805 30.619C37.3473 30.619 35.3733 29.6666 35.3733 26.5555V15.3809L33.3356 15.0634L33.4311 12.8412L35.7235 12.746L36.7105 9.34915L39.6397 9.22217V12.873H42.7918L42.5689 15.0952L39.6716 15.4126V26.5872C39.6716 27.5079 40.181 28.1111 41.1361 28.1111H42.8555L43.0465 30.0158Z" fill="black"/>
<path d="M162.22 30.3652L162.284 28.5239L163.908 28.143V15.3811L161.997 15.1906V13.2858L167.219 12.5557L167.569 13.7938V14.2065C168.938 13.1906 170.785 12.5239 173.014 12.5239L173.778 13.1906L173.236 18.016L170.371 17.9208L170.084 15.3493C169.416 15.4446 168.779 15.635 168.238 16.016V28.1747L170.052 28.5557L169.925 30.3969H162.22V30.3652V30.3652Z" fill="black"/>
<path d="M87.2393 30.3652L87.3348 28.5239L88.9586 28.143V15.3811L87.0482 15.1906V13.2858L92.2698 12.5557L92.6201 13.7938V14.2065C93.9891 13.1906 95.8358 12.5239 98.0645 12.5239L98.8287 13.1906L98.2237 18.016L95.3582 17.9208L95.0717 15.3493C94.4031 15.4446 93.7663 15.635 93.225 16.016V28.1747L95.0398 28.5557L94.9125 30.3969H87.2393V30.3652Z" fill="black"/>
<path d="M44.3199 30.3652L44.4155 28.5239L46.0393 28.143V15.3811L44.1289 15.1906V13.2858L49.3505 12.5557L49.7007 13.7938V14.2065C51.0698 13.1906 52.9165 12.5239 55.1134 12.5239L55.8775 13.1906L55.3363 18.016L52.4707 17.9208L52.1842 15.3493C51.5156 15.4446 50.8788 15.635 50.3375 16.016V28.1747L52.1524 28.5557L52.025 30.3969H44.3199V30.3652Z" fill="black"/>
<path d="M60.8128 22.5875C60.8128 25.6351 62.15 27.9843 64.7927 27.9843C66.1618 27.9843 67.2443 27.6986 68.5179 27.0954L69.2502 28.7779C67.9448 29.8256 66.0344 30.6192 63.6465 30.6192C58.998 30.6192 56.3235 26.6192 56.3235 21.4764C56.3235 17.0954 58.2657 12.3018 63.5828 12.3018C68.2313 12.3018 69.9825 16.5875 69.9825 21.3494L69.5367 22.4922L60.8128 22.5875ZM60.7491 20.5557L66.0981 20.3018C66.0026 18.1748 65.5568 14.8097 63.4554 14.8097C62.946 14.8097 62.5958 14.9049 61.959 15.2224C61.0994 16.6827 60.7491 19.3176 60.7491 20.5557Z" fill="black"/>
<path d="M134.807 22.5875C134.807 25.6351 136.144 27.9843 138.787 27.9843C140.156 27.9843 141.238 27.6986 142.512 27.0954L143.244 28.7779C141.939 29.8256 140.028 30.6192 137.64 30.6192C132.992 30.6192 130.317 26.6192 130.317 21.4764C130.317 17.0954 132.26 12.3018 137.577 12.3018C142.225 12.3018 143.976 16.5875 143.976 21.3494L143.531 22.4922L134.807 22.5875ZM134.743 20.5557L140.092 20.3018C139.996 18.1748 139.551 14.8097 137.449 14.8097C136.94 14.8097 136.59 14.9049 135.953 15.2224C135.093 16.6827 134.743 19.3176 134.743 20.5557Z" fill="black"/>
<path d="M103.732 22.5875C103.732 25.6351 105.069 27.9843 107.712 27.9843C109.081 27.9843 110.163 27.6986 111.437 27.0954L112.169 28.7779C110.864 29.8256 108.953 30.6192 106.566 30.6192C101.917 30.6192 99.2426 26.6192 99.2426 21.4764C99.2426 17.0954 101.185 12.3018 106.502 12.3018C111.15 12.3018 112.902 16.5875 112.902 21.3494L112.456 22.4922L103.732 22.5875ZM103.668 20.5557L109.017 20.3018C108.922 18.1748 108.476 14.8097 106.375 14.8097C105.865 14.8097 105.515 14.9049 104.878 15.2224C104.018 16.6827 103.636 19.3176 103.668 20.5557Z" fill="black"/>
<path d="M156.011 30.3652L155.566 28.8414C154.388 29.9525 153.241 30.6192 151.458 30.6192C148.72 30.6192 146.269 29.2541 146.269 25.4763V14.9367L144.263 14.7462V13.0636L150.058 12.397L150.503 13.9208V24.9684C150.503 26.9049 151.299 27.9208 152.859 27.9208C153.305 27.9208 153.878 27.8573 154.388 27.6668C154.674 27.3811 154.961 27.0319 155.184 26.6827V14.9367L153.114 14.7462V13.0636L158.972 12.397L159.418 13.9208V28.143L161.233 28.4922L161.01 30.3652C161.01 30.3652 156.011 30.3652 156.011 30.3652Z" fill="black"/>
<path d="M78.6744 28.0795C77.7511 28.0795 77.0188 27.9208 76.4457 27.6033V16.397C76.7004 16.016 76.9869 15.6668 77.2735 15.3494C77.8147 15.1589 78.2923 15.0954 78.8654 15.0954C81.2534 15.0954 81.6673 17.5081 81.6673 21.8256C81.6673 25.9843 81.0305 27.1271 80.8713 27.6033C80.2027 27.9208 79.5022 28.0795 78.6744 28.0795ZM85.8064 21.0637C85.8064 15.6986 84.2144 12.3335 80.2345 12.3335C77.5919 12.3335 76.3501 13.8573 75.8407 14.4922V13.8891L75.395 12.3652L70.2052 13.0954V14.9367L72.2111 15.1906V36.8414L70.4918 37.1906L70.3962 39.0002H78.0695L78.1968 37.1906L76.382 36.8414V29.9843C77.1143 30.397 78.1331 30.651 79.2475 30.651C85.7427 30.651 85.8064 24.0795 85.8064 21.0637Z" fill="black"/>
</g>
<defs>
<clipPath id="clip0_301_4616">
<rect width="174" height="39" fill="white"/>
</clipPath>
</defs>
</svg>
