<svg width="166" height="20" viewBox="0 0 166 20" fill="none" xmlns="http://www.w3.org/2000/svg">
<g clip-path="url(#clip0_260_16429)">
<path fill-rule="evenodd" clip-rule="evenodd" d="M132.064 9.52712V15.5625C132.064 15.8806 132.101 16.1466 132.174 16.3605C132.248 16.5749 132.355 16.7488 132.496 16.8834C132.636 17.0181 132.811 17.116 133.019 17.1767C133.246 17.2407 133.482 17.2717 133.717 17.2688C134.097 17.2688 134.44 17.1771 134.746 16.9933C135.051 16.8112 135.299 16.5477 135.463 16.2325C135.634 15.9082 135.72 15.5443 135.72 15.1408V9.52754H138.274V19.1762H136.18L135.996 17.8557H135.867C135.634 18.162 135.359 18.4337 135.049 18.6628C134.737 18.8954 134.385 19.0759 133.993 19.2039C133.601 19.3324 133.172 19.3968 132.707 19.3968C131.727 19.3968 130.949 19.1279 130.373 18.5897C129.798 18.0515 129.51 17.1833 129.51 15.9846V9.52712H132.064ZM151.171 9.30697C152.152 9.30697 152.978 9.48128 153.652 9.82988C154.325 10.1785 154.834 10.7167 155.177 11.4441C155.519 12.1723 155.691 13.1107 155.691 14.2602V14.9206H148.948C148.972 15.4832 149.061 15.9603 149.214 16.3514C149.367 16.743 149.607 17.0334 149.931 17.2229C150.255 17.4129 150.687 17.5071 151.226 17.5071C151.52 17.5071 151.786 17.4704 152.025 17.3968C152.251 17.3306 152.46 17.2183 152.641 17.0668C152.812 16.9202 152.947 16.7364 153.045 16.5166C153.143 16.2965 153.192 16.0458 153.192 15.7645H155.691C155.691 16.3758 155.581 16.9082 155.36 17.3605C155.147 17.8037 154.832 18.1903 154.441 18.4885C154.049 18.7884 153.581 19.0147 153.036 19.1676C152.491 19.3204 151.888 19.3968 151.226 19.3968C150.161 19.3968 149.266 19.2163 148.544 18.8557C147.821 18.4951 147.276 17.9412 146.909 17.1953C146.541 16.4493 146.357 15.5018 146.357 14.3519C146.357 13.1904 146.541 12.2392 146.909 11.4994C147.276 10.7596 147.818 10.2091 148.535 9.84806C149.251 9.48788 150.13 9.30697 151.171 9.30697H151.171ZM161.313 9.30697C161.876 9.30697 162.403 9.36521 162.893 9.48128C163.383 9.59775 163.812 9.76875 164.179 9.9951C164.547 10.2215 164.834 10.5027 165.043 10.839C165.251 11.1752 165.355 11.5514 165.355 11.967V12.2057C165.355 12.2788 165.349 12.328 165.337 12.3523H162.893V12.2057C162.893 11.9856 162.826 11.7993 162.691 11.646C162.556 11.4932 162.363 11.3738 162.112 11.2883C161.861 11.2028 161.558 11.1599 161.203 11.1599C160.958 11.1599 160.735 11.1781 160.533 11.2148C160.351 11.245 160.175 11.3006 160.009 11.38C159.862 11.4536 159.748 11.5424 159.669 11.646C159.589 11.7501 159.549 11.8753 159.549 12.0219C159.549 12.2301 159.638 12.3982 159.816 12.5266C159.994 12.6551 160.229 12.7621 160.523 12.8476C160.817 12.9331 161.141 13.0252 161.497 13.1227C161.938 13.2449 162.4 13.3643 162.884 13.4804C163.367 13.5968 163.818 13.753 164.235 13.9483C164.638 14.1338 164.987 14.4216 165.245 14.7831C165.502 15.1437 165.631 15.6298 165.631 16.2411C165.631 16.8285 165.517 17.3237 165.291 17.7273C165.066 18.1288 164.74 18.4641 164.345 18.6996C163.94 18.9445 163.469 19.1217 162.93 19.2316C162.391 19.3414 161.809 19.3968 161.185 19.3968C160.511 19.3968 159.904 19.3233 159.366 19.1766C158.826 19.03 158.367 18.8251 157.988 18.562C157.608 18.2993 157.317 17.9838 157.115 17.617C156.913 17.2502 156.812 16.8347 156.812 16.3696V16.223C156.812 16.1742 156.818 16.1375 156.83 16.1131H159.292V16.2597C159.304 16.5654 159.403 16.8132 159.586 17.0028C159.77 17.1928 160.011 17.3299 160.312 17.4158C160.612 17.5013 160.927 17.5439 161.258 17.5439C161.552 17.5439 161.837 17.5162 162.112 17.4613C162.388 17.4063 162.621 17.3051 162.811 17.1585C163.001 17.0119 163.096 16.8223 163.096 16.5898C163.096 16.2965 162.976 16.0701 162.737 15.9111C162.498 15.7525 162.186 15.6241 161.8 15.5262C161.414 15.4283 160.995 15.318 160.541 15.1957C160.121 15.0969 159.705 14.9837 159.292 14.8562C158.896 14.737 158.516 14.5676 158.162 14.3519C157.829 14.1481 157.549 13.8684 157.345 13.5357C157.136 13.1995 157.032 12.7745 157.032 12.2606C157.032 11.7592 157.143 11.3222 157.363 10.9488C157.583 10.5758 157.887 10.2673 158.272 10.0224C158.658 9.77825 159.111 9.59775 159.632 9.48128C160.153 9.36562 160.713 9.30697 161.313 9.30697V9.30697ZM47.8634 9.52712V15.5625C47.8634 15.8806 47.9002 16.1466 47.9733 16.3605C48.0472 16.5749 48.1542 16.7488 48.2955 16.8834C48.4359 17.0181 48.6102 17.116 48.8188 17.1767C49.0459 17.2407 49.281 17.2717 49.5168 17.2688C49.8964 17.2688 50.2397 17.1771 50.5457 16.9933C50.8507 16.8112 51.0988 16.5477 51.2624 16.2325C51.4338 15.9082 51.5193 15.5443 51.5193 15.1408V9.52754H54.0731V19.1762H51.979L51.7952 17.8557H51.6663C51.4333 18.162 51.1581 18.4337 50.8489 18.6628C50.5366 18.8954 50.1839 19.0759 49.7923 19.2039C49.4004 19.3324 48.9716 19.3968 48.5065 19.3968C47.5264 19.3968 46.7486 19.1279 46.1728 18.5897C45.5971 18.0515 45.3096 17.1833 45.3096 15.9846V9.52712H47.8634ZM106.729 9.30697C107.708 9.30697 108.535 9.48128 109.209 9.82988C109.882 10.1785 110.391 10.7167 110.734 11.4441C111.077 12.1723 111.248 13.1107 111.248 14.2602V14.9206H104.506C104.53 15.4832 104.619 15.9603 104.772 16.3514C104.925 16.743 105.164 17.0334 105.488 17.2229C105.813 17.4129 106.245 17.5071 106.784 17.5071C107.054 17.5105 107.323 17.4733 107.583 17.3968C107.809 17.3306 108.018 17.2183 108.198 17.0668C108.37 16.9202 108.504 16.7364 108.603 16.5166C108.701 16.2965 108.75 16.0458 108.75 15.7645H111.249C111.249 16.3758 111.138 16.9082 110.917 17.3605C110.705 17.8037 110.39 18.1903 109.999 18.4885C109.607 18.7884 109.138 19.0147 108.594 19.1676C108.048 19.3204 107.445 19.3968 106.784 19.3968C105.718 19.3968 104.824 19.2163 104.101 18.8557C103.379 18.4951 102.834 17.9412 102.466 17.1953C102.099 16.4493 101.915 15.5018 101.915 14.3519C101.915 13.1904 102.099 12.2392 102.466 11.4994C102.834 10.7596 103.376 10.2091 104.092 9.84806C104.809 9.48788 105.687 9.30697 106.729 9.30697V9.30697ZM126.461 6.77543V9.52712H128.224V11.4899H126.461V16.5166C126.461 16.8099 126.528 17.0334 126.663 17.1858C126.797 17.3394 127.018 17.4154 127.324 17.4154H128.224V19.1031C128.078 19.1523 127.906 19.1981 127.71 19.2407C127.514 19.2836 127.305 19.32 127.086 19.3509C126.865 19.3811 126.663 19.3968 126.479 19.3968C125.866 19.3968 125.371 19.2865 124.991 19.0664C124.611 18.8462 124.336 18.5501 124.164 18.1767C123.992 17.8041 123.907 17.3911 123.907 16.9384V11.4903H122.713V9.52712H123.998L124.476 6.77543H126.461V6.77543ZM5.89037 9.58495L11.198 18.7657L16.5064 9.58495L21.9701 19.0337C21.9786 19.0483 21.983 19.0649 21.983 19.0818C21.983 19.0986 21.9785 19.1152 21.97 19.1298C21.9616 19.1443 21.9494 19.1564 21.9348 19.1648C21.9202 19.1732 21.9036 19.1776 21.8867 19.1775H0.509235C0.492446 19.1774 0.47597 19.1729 0.461455 19.1645C0.44694 19.1561 0.434897 19.144 0.426531 19.1294C0.418166 19.1148 0.413771 19.0983 0.413788 19.0816C0.413805 19.0648 0.418232 19.0483 0.426627 19.0337L5.88995 9.58495H5.89037ZM77.7926 9.30697C78.4295 9.30697 78.9867 9.42345 79.4646 9.65558C79.942 9.88812 80.3125 10.2549 80.5756 10.7563C80.8392 11.2582 80.9709 11.912 80.9709 12.7191V19.1766H78.4171V13.1227C78.4171 12.817 78.3803 12.5568 78.3072 12.3433C78.2421 12.1435 78.1318 11.9615 77.985 11.8113C77.8389 11.6678 77.6589 11.5637 77.4617 11.5085C77.2346 11.4449 76.9995 11.4141 76.7637 11.4168C76.3837 11.4168 76.0408 11.5085 75.7348 11.6919C75.4315 11.8721 75.1836 12.1321 75.0181 12.4436C74.8463 12.7621 74.7612 13.1293 74.7612 13.5448V19.1766H72.2074V9.52712H74.3201L74.5225 10.848H74.6505C74.87 10.531 75.14 10.2521 75.4498 10.0224C75.7694 9.78659 76.1266 9.60671 76.5063 9.49036C76.8983 9.36852 77.3266 9.30697 77.7926 9.30697ZM118.414 9.30697C119.051 9.30697 119.608 9.42345 120.086 9.65558C120.564 9.88812 120.934 10.2549 121.197 10.7563C121.461 11.2582 121.593 11.912 121.593 12.7191V19.1766H119.039V13.1227C119.039 12.817 119.002 12.5568 118.928 12.3433C118.864 12.1436 118.754 11.9616 118.607 11.8113C118.461 11.6678 118.281 11.5636 118.083 11.5085C117.856 11.4449 117.621 11.4141 117.385 11.4168C117.005 11.4168 116.662 11.5085 116.356 11.6919C116.053 11.872 115.805 12.1321 115.64 12.4436C115.468 12.7621 115.382 13.1293 115.382 13.5448V19.1766H112.829V9.52712H114.942L115.144 10.848H115.272C115.492 10.531 115.762 10.2521 116.071 10.0224C116.391 9.78659 116.748 9.60671 117.128 9.49036C117.52 9.36852 117.948 9.30697 118.414 9.30697V9.30697ZM67.1918 9.30697C67.8039 9.30697 68.3335 9.41725 68.7808 9.63741C69.2281 9.85756 69.58 10.2153 69.8373 10.7105C70.0947 11.2061 70.2231 11.8451 70.2231 12.6274V19.1766H67.6693V13.0863C67.6693 12.7807 67.6354 12.5204 67.5681 12.3065C67.5008 12.0925 67.4058 11.9211 67.2831 11.7927C67.1559 11.6615 66.9983 11.5639 66.8242 11.5085C66.6345 11.4465 66.436 11.4155 66.2364 11.4168C65.8936 11.4168 65.5871 11.5085 65.3178 11.6919C65.0481 11.8753 64.8366 12.126 64.6838 12.4436C64.531 12.7621 64.4541 13.1293 64.4541 13.5448V19.1766H61.9003V13.0863C61.9003 12.7807 61.8664 12.5204 61.7991 12.3065C61.7318 12.0925 61.6368 11.9211 61.5141 11.7927C61.3895 11.6628 61.2351 11.5653 61.0643 11.5085C60.8718 11.4451 60.6701 11.4141 60.4675 11.4168C60.137 11.4168 59.8334 11.5085 59.5579 11.6919C59.2824 11.8753 59.0676 12.126 58.9148 12.4436C58.7616 12.7621 58.6852 13.1293 58.6852 13.5448V19.1766H56.1313V9.52712H58.244L58.4464 10.848H58.5749C58.7782 10.5355 59.0293 10.2569 59.3192 10.0224C59.6096 9.78876 59.9393 9.60863 60.2927 9.49036C60.669 9.36578 61.0632 9.30382 61.4596 9.30697C62.0717 9.30697 62.6012 9.42965 63.0486 9.67417C63.4959 9.91869 63.8416 10.3103 64.087 10.848H64.215C64.4198 10.5338 64.6744 10.2549 64.9688 10.0224C65.271 9.78591 65.6132 9.60571 65.9791 9.49036C66.3713 9.36625 66.7805 9.30437 67.1918 9.30697V9.30697ZM34.929 6.59245L39.7793 19.1771H36.8215L35.9211 16.7004H30.4276L29.5272 19.1771H26.6978L31.5486 6.59204H34.929V6.59245ZM85.5268 9.52754V19.1771H82.9729V9.52712H85.5268V9.52754ZM145.017 9.28921C145.225 9.28921 145.414 9.31069 145.586 9.35365C145.758 9.39619 145.886 9.43584 145.972 9.4726V11.784H145.182C144.802 11.784 144.469 11.8364 144.181 11.9397C143.901 12.0378 143.652 12.2053 143.455 12.4263C143.259 12.646 143.115 12.9153 143.023 13.2334C142.932 13.5514 142.885 13.9244 142.885 14.3523V19.1766H140.332V9.52795H142.445L142.647 11.0318H142.775C142.894 10.7208 143.055 10.4276 143.253 10.1603C143.448 9.8978 143.699 9.68173 143.988 9.52754C144.282 9.36893 144.624 9.28921 145.017 9.28921H145.017ZM43.3257 5.91382V19.1766H40.7715V5.91382H43.3253H43.3257ZM92.8938 6.59204L95.6129 14.627C95.6616 14.762 95.7166 14.9235 95.7781 15.1131C95.8393 15.3031 95.9004 15.489 95.9619 15.6728C96.0231 15.8562 96.0722 16.0214 96.109 16.168H96.2188C96.2676 16.0334 96.32 15.8777 96.3754 15.7001C96.4303 15.5229 96.4857 15.3424 96.5406 15.159C96.5955 14.9756 96.648 14.8046 96.6967 14.6456L99.4158 6.59204H102.264L97.6893 19.1766H94.4923L89.9365 6.59204H92.8947H92.8938ZM33.2202 8.97695H33.1103C33.0369 9.25076 32.9573 9.52289 32.8716 9.79312C32.7733 10.105 32.675 10.4048 32.5775 10.6923C32.4792 10.9794 32.3999 11.2148 32.3384 11.3986L31.2182 14.4981H35.1318L34.0108 11.3978C33.9616 11.2636 33.9034 11.1016 33.8361 10.9116C33.7619 10.702 33.6917 10.4911 33.6254 10.2789C33.5529 10.0503 33.4824 9.82101 33.4139 9.59115C33.3527 9.38527 33.2883 9.18038 33.2206 8.97654L33.2202 8.97695ZM106.765 11.1966C106.3 11.1966 105.911 11.2731 105.599 11.4259C105.291 11.5746 105.039 11.8193 104.882 12.1231C104.717 12.4349 104.604 12.8294 104.542 13.3065H108.621C108.621 12.9393 108.575 12.6216 108.483 12.3523C108.391 12.0839 108.266 11.8633 108.107 11.6919C107.947 11.521 107.749 11.3919 107.528 11.316C107.282 11.2334 107.024 11.1929 106.765 11.1962V11.1966ZM151.209 11.1966C150.743 11.1966 150.354 11.2731 150.042 11.4259C149.734 11.5746 149.482 11.8193 149.325 12.1231C149.16 12.4349 149.046 12.8294 148.985 13.3065H153.064C153.064 12.9393 153.018 12.6216 152.926 12.3523C152.834 12.0839 152.709 11.8633 152.549 11.6919C152.39 11.5211 152.192 11.392 151.971 11.316C151.725 11.2334 151.468 11.1929 151.209 11.1962V11.1966ZM11.1154 0.547972C11.1238 0.533388 11.1359 0.521277 11.1504 0.512855C11.165 0.504434 11.1816 0.5 11.1984 0.5C11.2152 0.5 11.2318 0.504434 11.2463 0.512855C11.2609 0.521277 11.273 0.533388 11.2814 0.547972L14.7415 6.53173L11.1984 12.6592L7.6553 6.53173L11.1154 0.547972ZM85.5268 5.91341V8.11493H82.9729V5.91341H85.5268Z" fill="white"/>
</g>
<defs>
<clipPath id="clip0_260_16429">
<rect width="165.217" height="19" fill="white" transform="translate(0.413269 0.5)"/>
</clipPath>
</defs>
</svg>
