<svg width="56" height="56" viewBox="0 0 56 56" fill="none" xmlns="http://www.w3.org/2000/svg">
<g clip-path="url(#clip0_260_16431)">
<path fill-rule="evenodd" clip-rule="evenodd" d="M54.477 1.52299H1.52299V54.477H54.477V1.52299ZM0 0V56H56V0H0Z" fill="white"/>
<path d="M23.8108 14.9306C23.0062 14.9306 22.4591 15.3061 22.0836 15.7888V15.0593H20.1526V20.595H22.1265V17.5268C22.1265 16.8616 22.5557 16.6041 22.9955 16.6041C23.5534 16.6041 23.7465 16.9153 23.7465 17.4302V20.595H25.7204V17.0118C25.7204 15.585 24.8622 14.9306 23.8108 14.9306Z" fill="white"/>
<path d="M29.3426 20.7237C31.1878 20.7237 32.3249 19.5758 32.3249 17.8271C32.3249 16.0785 31.1878 14.9306 29.3426 14.9306C27.4973 14.9306 26.3602 16.0785 26.3602 17.8271C26.3602 19.5758 27.4973 20.7237 29.3426 20.7237ZM29.3426 19.1789C28.7203 19.1789 28.3448 18.7712 28.3448 17.8271C28.3448 16.8831 28.7203 16.4754 29.3426 16.4754C29.9648 16.4754 30.3403 16.8831 30.3403 17.8271C30.3403 18.7712 29.9648 19.1789 29.3426 19.1789Z" fill="white"/>
<path d="M36.2318 16.454V15.0593H35.1912V13.3857H33.2172V15.0593H32.4341V16.454H33.2172V18.8999C33.2172 20.1337 33.8287 20.6486 35.395 20.6486C35.6739 20.6486 35.9636 20.6272 36.2318 20.595V19.1574H35.8241C35.4272 19.1574 35.1912 19.1252 35.1912 18.6639V16.454H36.2318Z" fill="white"/>
<path d="M15.5599 30.4271C14.8519 30.4271 14.3584 30.706 14.0258 31.1566V28.4531H12.0519V36.0915H13.9722V35.4049C14.3048 35.9091 14.809 36.2202 15.5599 36.2202C17.0511 36.2202 17.9201 35.0723 17.9201 33.3236C17.9201 31.575 17.0511 30.4271 15.5599 30.4271ZM14.9699 34.6754C14.3477 34.6754 14.0044 34.2677 14.0044 33.3236C14.0044 32.3796 14.3477 31.9719 14.9699 31.9719C15.5921 31.9719 15.9354 32.3367 15.9354 33.2807C15.9354 34.2248 15.5921 34.6754 14.9699 34.6754Z" fill="white"/>
<path d="M21.3361 36.2202C23.1814 36.2202 24.3185 35.0723 24.3185 33.3236C24.3185 31.575 23.1814 30.4271 21.3361 30.4271C19.4909 30.4271 18.3537 31.575 18.3537 33.3236C18.3537 35.0723 19.4909 36.2202 21.3361 36.2202ZM21.3361 34.6754C20.7139 34.6754 20.3384 34.2677 20.3384 33.3236C20.3384 32.3796 20.7139 31.9719 21.3361 31.9719C21.9584 31.9719 22.3338 32.3796 22.3338 33.3236C22.3338 34.2677 21.9584 34.6754 21.3361 34.6754Z" fill="white"/>
<path d="M28.3813 30.47C27.5767 30.47 27.0832 30.8669 26.8901 31.6501V30.5558H24.959V36.0915H26.933V33.7313C26.933 32.7014 27.3943 32.2723 28.2633 32.2723H28.7782V30.5022C28.6602 30.4807 28.5315 30.47 28.3813 30.47Z" fill="white"/>
<path d="M29.4864 29.998H31.3424V28.4531H29.4864V29.998ZM29.422 36.0915H31.396V30.5558H29.422V36.0915Z" fill="white"/>
<path d="M35.909 30.4271C35.1044 30.4271 34.5572 30.8026 34.1818 31.2853V30.5558H32.2507V36.0915H34.2247V33.0233C34.2247 32.3581 34.6538 32.1006 35.0936 32.1006C35.6515 32.1006 35.8446 32.4118 35.8446 32.9267V36.0915H37.8186V32.5083C37.8186 31.0815 36.9603 30.4271 35.909 30.4271Z" fill="white"/>
<path d="M42.3848 30.5558V31.2317C42.0844 30.7489 41.5909 30.4271 40.8185 30.4271C39.3809 30.4271 38.4583 31.5535 38.4583 33.1413C38.4583 34.729 39.4238 35.8769 40.8614 35.8769C41.5801 35.8769 42.0415 35.598 42.3418 35.1581V36.0164C42.3418 36.5313 42.0522 36.8746 41.4407 36.8746C40.8506 36.8746 40.561 36.6493 40.5395 36.1988H38.5978C38.6407 37.4432 39.5418 38.3229 41.387 38.3229C43.243 38.3229 44.3158 37.4432 44.3158 35.9413V30.5558H42.3848ZM41.4085 34.3321C40.7863 34.3321 40.443 33.9673 40.443 33.1842C40.443 32.401 40.7863 31.9719 41.4085 31.9719C42.0307 31.9719 42.374 32.3581 42.374 33.1413C42.374 33.9244 42.0307 34.3321 41.4085 34.3321Z" fill="white"/>
</g>
<defs>
<clipPath id="clip0_260_16431">
<rect width="56" height="56" fill="white"/>
</clipPath>
</defs>
</svg>
