<svg width="113" height="32" viewBox="0 0 113 32" fill="none" xmlns="http://www.w3.org/2000/svg">
<g clip-path="url(#clip0_260_16413)">
<path fill-rule="evenodd" clip-rule="evenodd" d="M26.9198 13.91C26.3457 13.4938 25.8673 12.9976 25.5005 12.4052C25.1338 11.8129 24.8786 11.1726 24.767 10.4522C24.6394 9.74779 24.6554 9.01142 24.7989 8.27505L24.8148 8.22699C24.9583 7.49062 25.2294 6.81825 25.6121 6.20993C25.9949 5.61766 26.4573 5.10537 27.0155 4.70515C27.5736 4.30494 28.1796 4.01679 28.8813 3.87272C29.567 3.71263 30.3005 3.72864 31.066 3.87272C31.8155 4.0328 32.4852 4.30494 33.0753 4.72116C33.6653 5.13738 34.1278 5.64966 34.5105 6.22598C34.8773 6.81825 35.1324 7.45862 35.2441 8.17899C35.3079 8.57921 35.3397 8.99542 35.3238 9.41163L39.0554 6.9143C38.8002 5.96982 38.4175 5.10537 37.8753 4.30494C37.2215 3.34444 36.3922 2.512 35.3557 1.82363C34.3351 1.11926 33.155 0.639009 31.8314 0.366866C30.5079 0.094722 29.2321 0.078714 28.0042 0.334849C26.7763 0.574977 25.6919 1.02321 24.7032 1.67956C23.7304 2.3359 22.9012 3.15234 22.2155 4.14486C21.5457 5.13738 21.0833 6.24198 20.8281 7.47462V7.52262C20.573 8.75531 20.573 9.97195 20.8121 11.1405C21.0514 12.3092 21.4979 13.3817 22.1517 14.3422C22.7577 15.2387 23.5391 16.0071 24.464 16.6795L27.8288 14.4223C27.5098 14.2782 27.2069 14.1181 26.9198 13.91ZM96.4161 1.19922H99.972L108.217 12.085V1.19922H112.044V18.8725H108.759L100.228 7.63462V18.8725H96.4161V1.19922ZM76.5943 31.8072C76.9449 31.9353 77.3121 31.9993 77.6788 31.9993C77.8423 31.9993 77.9992 31.9796 78.1455 31.9612C78.2273 31.9509 78.3059 31.9411 78.3804 31.9353C78.6036 31.8713 78.7789 31.7752 78.9385 31.6472C79.0981 31.5191 79.2254 31.375 79.3052 31.1829C79.385 30.9908 79.433 30.7827 79.433 30.5426V30.5265C79.433 30.3184 79.4007 30.1264 79.337 29.9823C79.2572 29.8222 79.1618 29.6941 79.034 29.5821C78.9067 29.47 78.7471 29.374 78.5556 29.2939C78.3642 29.2139 78.1409 29.1339 77.902 29.0698C77.6944 29.0218 77.5353 28.9737 77.3914 28.9257C77.2641 28.8937 77.1525 28.8457 77.0727 28.7976C76.9929 28.7496 76.9449 28.7016 76.913 28.6376C76.8812 28.5735 76.8656 28.5095 76.8656 28.4295V28.4135C76.8656 28.2854 76.9292 28.1893 77.0247 28.1093C77.1207 28.0293 77.2797 27.9812 77.4874 27.9812C77.6944 27.9812 77.902 28.0293 78.1091 28.1093C78.3167 28.2054 78.54 28.3174 78.7471 28.4615L79.289 27.6611C79.0501 27.4689 78.7789 27.3249 78.4758 27.2128C78.1728 27.1008 77.8541 27.0527 77.503 27.0527C77.2479 27.0527 77.0247 27.0847 76.8176 27.1488C76.61 27.2288 76.4347 27.3249 76.2913 27.4529C76.1316 27.581 76.02 27.7411 75.9402 27.9172C75.8609 28.0933 75.8129 28.2854 75.8129 28.5095V28.5255C75.8129 28.7496 75.8447 28.9577 75.9246 29.1179C76.0044 29.2779 76.0998 29.406 76.2433 29.518C76.3867 29.6301 76.5625 29.7101 76.7539 29.7902C76.9449 29.8542 77.1681 29.9182 77.4075 29.9823C77.6146 30.0303 77.7742 30.0783 77.902 30.1264C78.0293 30.1744 78.141 30.2224 78.2051 30.2704C78.2688 30.3184 78.3167 30.3665 78.3486 30.4145C78.3642 30.4625 78.3804 30.5265 78.3804 30.5906V30.6066C78.3804 30.7507 78.3324 30.8628 78.2051 30.9428C78.0773 31.0228 77.9177 31.0709 77.6944 31.0709C77.4075 31.0709 77.1525 31.0228 76.9292 30.9108C76.706 30.7987 76.4827 30.6547 76.2594 30.4785L75.6377 31.2309C75.9246 31.4871 76.2433 31.6792 76.5943 31.8072ZM34.1916 27.1006H33.0275L34.957 31.9671H35.8979L37.8434 27.1006H36.7111L35.4513 30.4943L34.1916 27.1006ZM43.377 27.1006H39.773V31.9191H43.4248V30.9746H40.8096V29.9661H43.074V29.0216H40.8096V28.0451H43.377V27.1006ZM45.5138 27.1006H46.4866L48.7351 30.0781V27.1006H49.7716V31.9191H48.8786L46.5503 28.8455V31.9191H45.5138V27.1006ZM51.7488 28.0771H53.2161V31.9191H54.2682V28.0771H55.7355V27.1006H51.7488V28.0771ZM59.7224 31.9991C59.0844 31.9991 58.5743 31.823 58.1914 31.4549C57.8247 31.1027 57.6332 30.5584 57.6332 29.854V27.1006H58.6859V29.838C58.6859 30.2382 58.7819 30.5263 58.9571 30.7345C59.1324 30.9266 59.3875 31.0386 59.7224 31.0386C60.0416 31.0386 60.2967 30.9426 60.4881 30.7505C60.6634 30.5584 60.7588 30.2702 60.7588 29.886V27.1166H61.8115V29.838C61.8115 30.2062 61.7635 30.5263 61.668 30.7985C61.5726 31.0707 61.4286 31.2948 61.2533 31.4709C61.0781 31.6469 60.8548 31.791 60.5836 31.8711C60.3285 31.9511 60.0416 31.9991 59.7224 31.9991ZM66.2765 27.1006H64.0758V31.9511H65.1284V30.4143H65.9417H65.9573L66.9943 31.9511H68.2379L67.0579 30.2222C67.3767 30.1101 67.6161 29.918 67.8075 29.6779C67.999 29.4218 68.0944 29.1016 68.0944 28.7174V28.7014C68.0944 28.2372 67.951 27.869 67.6797 27.5968C67.3448 27.2606 66.8827 27.1006 66.2765 27.1006ZM66.8029 29.2457C66.6594 29.3738 66.4518 29.4378 66.1967 29.4378H65.1284V28.0451H66.1806C66.4362 28.0451 66.6432 28.1091 66.7867 28.2212C66.9301 28.3332 67.0099 28.5093 67.0099 28.7334V28.7494C67.0099 28.9575 66.9463 29.1176 66.8029 29.2457ZM70.2155 27.1006H73.8194V28.0451H71.2519V29.0216H73.5168V29.9661H71.2519V30.9746H73.8674V31.9191H70.2155V27.1006ZM92.0626 1.19922H78.8107V18.8725H92.1899V15.4147H82.6379V11.7008H90.9301V8.24294H82.6379V4.65704H92.0626V1.19922ZM59.4032 1.19922H66.2605C67.6318 1.19922 68.8916 1.42334 70.0402 1.87158C71.1883 2.31981 72.1768 2.92813 73.0061 3.72855C73.8355 4.51297 74.473 5.44145 74.9356 6.51403C75.3822 7.58657 75.6216 8.73921 75.6216 9.98785V10.0359C75.6216 11.2845 75.3983 12.4371 74.9356 13.5257C74.4891 14.5983 73.8355 15.5428 73.0061 16.3272C72.1768 17.1116 71.1883 17.736 70.0402 18.2002C68.8916 18.6484 67.6318 18.8885 66.2605 18.8885H59.4032V1.19922ZM66.2605 15.3667C67.0419 15.3667 67.7753 15.2386 68.4294 14.9825C69.083 14.7264 69.6411 14.3742 70.1038 13.8939C70.566 13.4297 70.917 12.8694 71.1883 12.229C71.4434 11.5887 71.5706 10.8683 71.5706 10.0839V10.0359C71.5706 9.26748 71.4434 8.5471 71.1883 7.89073C70.9332 7.23441 70.566 6.67409 70.1038 6.19387C69.6411 5.72961 69.083 5.36139 68.4294 5.08927C67.7753 4.83314 67.0581 4.70507 66.2605 4.70507H63.2627V15.3667H66.2605ZM47.4594 1.31104V15.3665H56.2301V18.8723H43.5843V3.85638L44.4197 3.30921C45.5879 2.54429 46.6181 1.86968 47.4594 1.31104ZM5.9019 18.4884C7.03408 18.9526 8.29391 19.1768 9.66532 19.1768C11.2759 19.1768 12.7112 18.9046 13.9391 18.3443C15.1989 17.8 16.2673 17.1277 17.1763 16.3593V8.69125H9.53778V12.053H13.4448V14.5823C12.456 15.3027 11.2281 15.6549 9.79291 15.6549C8.99555 15.6549 8.27795 15.5108 7.64011 15.2387C6.98625 14.9666 6.42811 14.5823 5.94973 14.0701C5.47132 13.5738 5.10454 12.9815 4.84939 12.2931C4.59424 11.6048 4.46666 10.8684 4.46666 10.0519V10.0039C4.46666 9.23552 4.59424 8.53114 4.84939 7.85882C5.12049 7.18645 5.47131 6.61013 5.93377 6.11386C6.39624 5.6176 6.93842 5.2174 7.54439 4.92926C8.16633 4.6251 8.82013 4.48102 9.52182 4.48102C10.0321 4.48102 10.4945 4.52904 10.9092 4.60908C11.3238 4.68913 11.7065 4.8172 12.0733 4.96127C12.4241 5.12136 12.775 5.29745 13.1099 5.52154C13.4448 5.7297 13.7796 5.98581 14.1145 6.27397L16.5703 3.32841C16.1238 2.9282 15.6454 2.59202 15.167 2.28786C14.6727 1.9837 14.1624 1.74358 13.6042 1.53546C13.0461 1.34336 12.4401 1.18328 11.8022 1.07122C11.1484 0.959159 10.4308 0.911133 9.64941 0.911133C8.30988 0.911133 7.06601 1.15126 5.94973 1.63152C4.8175 2.11177 3.84474 2.76811 3.03145 3.60055C2.20221 4.43299 1.56434 5.39349 1.10188 6.49808C0.639424 7.58666 0.416168 8.7713 0.416168 10.0359V10.084C0.416168 11.3967 0.639424 12.6133 1.08594 13.7179C1.53245 14.8385 2.17032 15.799 2.98361 16.5994C3.7969 17.3998 4.76966 18.0402 5.9019 18.4884Z" fill="white"/>
</g>
<defs>
<clipPath id="clip0_260_16413">
<rect width="111.628" height="32" fill="white" transform="translate(0.416077)"/>
</clipPath>
</defs>
</svg>
