<svg width="65" height="42" viewBox="0 0 65 42" fill="none" xmlns="http://www.w3.org/2000/svg">
<g clip-path="url(#clip0_260_16411)">
<path fill-rule="evenodd" clip-rule="evenodd" d="M3.19949 25.2211V38.8875H11.7373V41.463H0.369324V25.2211H3.19949ZM23.8007 25.2211H21.178L14.0838 41.4614H16.9858C19.9254 34.5726 19.3456 35.84 22.4453 28.6067C25.2215 35.0348 25.3555 35.3925 27.9047 41.4614H30.8998L23.791 25.2211H23.8007ZM63.407 32.0592V34.6347H51.389V32.0592H63.407ZM63.407 38.8924V41.468H51.389V38.8875L63.407 38.8924ZM51.389 27.7966V25.2211H63.407V27.7966H51.389ZM28.8522 6.8332V9.40875H16.8392V6.8332H28.8522ZM28.8522 13.6664V16.2419H16.8392V13.6664H28.8522ZM16.8343 2.57551V0H28.8522V2.57551H16.8343ZM0.369324 16.2419V0H3.19949V13.6664H11.7373V16.2419H0.369324ZM46.5583 0H34.493V16.2419H37.3215V9.62918H45.5131V7.0537H37.3215V2.57551H46.5567V0H46.5583ZM58.689 2.64411H63.8398V0H50.6623V2.64411H55.8131V16.2419H58.689V2.64411ZM45.0604 36.4508L36.3788 25.2211H33.7381V41.463H36.5683V29.9083L45.5112 41.463H47.8971V25.2211H45.0604V36.4508Z" fill="white"/>
</g>
<defs>
<clipPath id="clip0_260_16411">
<rect width="63.6774" height="42" fill="white" transform="translate(0.369324)"/>
</clipPath>
</defs>
</svg>
