<svg width="52" height="52" viewBox="0 0 52 52" fill="none" xmlns="http://www.w3.org/2000/svg">
<g clip-path="url(#clip0_260_16395)">
<path fill-rule="evenodd" clip-rule="evenodd" d="M20.072 52H4.68V28.496H0V9.36H1.768C6.032 9.36 9.36 6.032 9.36 1.768V0H52V3.64H12.896C12.064 8.32 8.32 12.064 3.64 12.896V24.856H8.32V48.36H20.176V52H20.072ZM37.5441 38.4804H35.0481V40.0404H37.4401V41.2884H35.0481V43.7844H33.5921V37.3364H37.6481V38.4804H37.5441ZM38.4801 37.8559C38.4801 38.2719 38.7921 38.5839 39.3121 38.5839C39.7281 38.5839 40.1441 38.2719 40.1441 37.8559C40.1441 37.4399 39.8321 37.1279 39.3121 37.1279C38.7921 37.1279 38.4801 37.4399 38.4801 37.8559ZM38.4801 43.7839H39.9361V39.2079H38.4801V43.7839ZM44.0442 40.5279L44.0442 40.5279C43.93 40.4973 43.774 40.4555 43.5762 40.4555C43.2642 40.4555 42.9522 40.6635 42.8482 40.7675C42.7442 40.8715 42.6402 41.1835 42.6402 41.7035V43.7835H41.1842V39.2075H42.6402V39.8315C42.9522 39.3115 43.2642 39.1035 43.7842 39.1035C44.0962 39.1035 44.2002 39.2075 44.2002 39.2075V40.5595C44.1621 40.5595 44.1101 40.5456 44.0442 40.5279ZM46.3842 43.8875C47.0082 43.8875 47.5282 43.7835 47.8402 43.4715C48.1522 43.1595 48.3602 42.8475 48.3602 42.1195C48.3602 41.5995 48.0482 41.2875 47.9442 41.1835L47.3202 40.8715C47.1916 40.8072 47.1028 40.7827 46.98 40.7488C46.9042 40.7278 46.8153 40.7032 46.6962 40.6635C46.3842 40.5595 46.0722 40.4555 46.0722 40.2475C46.0722 40.0395 46.2802 39.9355 46.5922 39.9355C46.9042 39.9355 47.4242 40.1435 47.7362 40.3515L48.2562 39.5195C47.9442 39.3115 47.4242 38.9995 46.4882 38.9995C45.5522 38.9995 44.7202 39.5195 44.7202 40.4555C44.7202 41.2875 45.3442 41.5995 45.4482 41.5995L45.4482 41.5995L45.4482 41.5995C45.6562 41.7035 45.8642 41.8075 46.0722 41.8075C46.1242 41.8335 46.2022 41.8595 46.2899 41.8888C46.5532 41.9765 46.9042 42.0935 46.9042 42.3275C46.9042 42.6395 46.6962 42.7435 46.2802 42.7435C45.9682 42.7435 45.3442 42.5355 44.9282 42.2235L44.4082 43.1595C44.9282 43.6795 45.6562 43.8875 46.3842 43.8875ZM52.0001 40.248H50.9601V41.912C50.9601 42.328 51.0641 42.432 51.0641 42.432C51.1681 42.536 51.2721 42.536 51.3761 42.536C51.5841 42.536 51.7921 42.432 51.7921 42.432L52.0001 43.68C51.9679 43.68 51.906 43.6899 51.8204 43.7036C51.629 43.7343 51.3194 43.784 50.9601 43.784C50.4401 43.784 50.0241 43.576 49.8161 43.368C49.6081 43.056 49.5041 42.744 49.5041 42.016V40.248H48.8801V39.104H49.5041V37.856H50.9601V39.104H52.0001V40.248ZM27.872 51.8962H29.64L27.872 49.1922C28.288 48.9842 29.12 48.5682 29.12 47.3202C29.12 46.6962 28.808 46.1762 28.392 45.8642C27.976 45.5522 27.456 45.4482 26.728 45.4482H24.44V51.8962H26V49.4002H26.52L27.872 51.8962ZM26.728 46.5922C27.04 46.5922 27.248 46.6962 27.456 46.8002C27.664 46.9042 27.768 47.1122 27.768 47.4242C27.768 47.7362 27.664 47.9442 27.456 48.0482C27.352 48.2562 27.04 48.2562 26.728 48.2562H26.104V46.5922H26.728ZM32.4478 52.0003C30.9918 52.0003 29.8478 51.0643 29.8478 49.6083C29.8478 48.1523 30.9918 47.2163 32.4478 47.2163C33.9038 47.2163 34.9438 48.1523 34.9438 49.6083C34.9438 51.0643 33.9038 52.0003 32.4478 52.0003ZM32.4478 48.3603C31.8238 48.3603 31.4078 48.8803 31.4078 49.5043C31.4078 50.2323 31.8238 50.6483 32.4478 50.6483C33.0718 50.6483 33.4878 50.1283 33.4878 49.5043C33.4878 48.8803 33.0718 48.3603 32.4478 48.3603ZM38.8959 51.8958H40.2479V47.3198H38.7919V49.8158C38.7919 50.4398 38.5839 50.8558 38.0639 50.8558C37.4399 50.8558 37.3359 50.4398 37.3359 49.9198V47.3198H35.8799V50.1278C35.8799 50.7518 35.9839 51.1678 36.1919 51.4798C36.5039 51.7918 36.9199 51.9998 37.5439 51.9998C38.1679 51.9998 38.6879 51.6878 38.8959 51.3758V51.8958ZM45.968 51.8963H44.512V49.5043C44.512 48.8803 44.408 48.4643 43.784 48.4643C43.16 48.4643 42.952 48.9843 42.952 49.6083V51.8963H41.496V47.3203H42.952V47.9443C43.16 47.5283 43.576 47.2163 44.304 47.2163C45.656 47.2163 45.968 48.0483 45.968 49.1923V51.8963ZM50.544 51.8962H52V45.4482H50.44V47.8402C50.336 47.6322 49.816 47.2162 48.984 47.2162C47.632 47.2162 46.8 48.2562 46.8 49.6082C46.8 50.9602 47.632 52.0002 48.984 52.0002C49.608 52.0002 50.232 51.6882 50.544 51.2722V51.8962ZM48.464 49.5042C48.464 48.8802 48.88 48.3602 49.504 48.3602C50.128 48.3602 50.544 48.8802 50.544 49.5042C50.544 50.1282 50.128 50.6482 49.504 50.6482C48.88 50.6482 48.464 50.1282 48.464 49.5042Z" fill="white"/>
</g>
<defs>
<clipPath id="clip0_260_16395">
<rect width="52" height="52" fill="white"/>
</clipPath>
</defs>
</svg>
